<svg width="35" height="35" viewBox="0 0 35 35" fill="none" xmlns="http://www.w3.org/2000/svg">
<path d="M32.5 0.883301H2.49219C1.11719 0.883301 0 1.97221 0 3.30894V32.1012C0 33.4379 1.11719 34.5269 2.49219 34.5269H32.5C33.875 34.5269 35 33.4379 35 32.1012V3.30894C35 1.97221 33.875 0.883301 32.5 0.883301ZM10.5781 29.7206H5.39062V13.6648H10.5859V29.7206H10.5781ZM7.98438 11.472C6.32031 11.472 4.97656 10.1728 4.97656 8.58077C4.97656 6.9887 6.32031 5.68952 7.98438 5.68952C9.64062 5.68952 10.9922 6.9887 10.9922 8.58077C10.9922 10.1803 9.64844 11.472 7.98438 11.472ZM30.0234 29.7206H24.8359V21.9105C24.8359 20.0481 24.7969 17.6525 22.1406 17.6525C19.4375 17.6525 19.0234 19.6801 19.0234 21.7753V29.7206H13.8359V13.6648H18.8125V15.8577H18.8828C19.5781 14.5961 21.2734 13.2668 23.7969 13.2668C29.0469 13.2668 30.0234 16.5936 30.0234 20.9192V29.7206Z" fill="#D3D3D3"/>
</svg>
