<svg width="90" height="51" viewBox="0 0 90 51" fill="none" xmlns="http://www.w3.org/2000/svg">
<path d="M28.053 35V31.868H30.915V35H28.053ZM24.462 35V15.911H28.053V35H24.462ZM21.384 35V31.868H24.462V35H21.384ZM21.384 35C21.168 35 21.024 34.856 20.952 34.568C20.88 34.28 20.844 33.902 20.844 33.434C20.844 32.948 20.88 32.57 20.952 32.3C21.024 32.012 21.168 31.868 21.384 31.868V35ZM9.315 41.696C8.145 41.696 7.056 41.525 6.048 41.183C5.058 40.859 4.194 40.4 3.456 39.806C2.718 39.23 2.133 38.537 1.701 37.727C1.287 36.935 1.08 36.071 1.08 35.135C1.08 34.793 1.107 34.352 1.161 33.812C1.215 33.272 1.287 32.651 1.377 31.949C1.485 31.247 1.602 30.5 1.728 29.708L5.292 30.194C5.112 31.328 4.968 32.336 4.86 33.218C4.752 34.1 4.698 34.721 4.698 35.081C4.698 35.765 4.887 36.368 5.265 36.89C5.643 37.412 6.174 37.817 6.858 38.105C7.56 38.411 8.379 38.564 9.315 38.564H16.956C18.126 38.564 18.999 38.267 19.575 37.673C20.151 37.079 20.439 36.215 20.439 35.081V34.055H24.03V35.081C24.03 36.377 23.742 37.52 23.166 38.51C22.59 39.5 21.771 40.274 20.709 40.832C19.665 41.408 18.414 41.696 16.956 41.696H9.315ZM19.251 35C18.423 35 17.622 34.91 16.848 34.73C16.092 34.55 15.372 34.226 14.688 33.758L16.74 31.166C17.028 31.364 17.28 31.517 17.496 31.625C17.73 31.715 17.982 31.778 18.252 31.814C18.54 31.85 18.873 31.868 19.251 31.868H25.218V35H19.251ZM25.218 35V31.868C25.416 31.868 25.551 32.012 25.623 32.3C25.713 32.57 25.758 32.948 25.758 33.434C25.758 33.902 25.713 34.28 25.623 34.568C25.551 34.856 25.416 35 25.218 35ZM30.915 35V31.868C31.131 31.868 31.275 32.012 31.347 32.3C31.419 32.57 31.455 32.948 31.455 33.434C31.455 33.902 31.419 34.28 31.347 34.568C31.275 34.856 31.131 35 30.915 35ZM8.856 47.366V44.288H12.474V47.366H8.856ZM12.555 47.366V44.288H16.173V47.366H12.555ZM30.9023 35V31.868H43.5113L42.4043 32.813V23.795L43.3223 24.578H39.9203C39.1283 24.578 38.5073 24.677 38.0573 24.875C37.6073 25.073 37.2923 25.442 37.1123 25.982C36.9323 26.504 36.8423 27.251 36.8423 28.223C36.8423 29.285 36.9323 30.077 37.1123 30.599C37.2923 31.103 37.6073 31.445 38.0573 31.625C38.5073 31.787 39.1283 31.868 39.9203 31.868V34.676C38.3903 34.676 37.1303 34.46 36.1403 34.028C35.1503 33.596 34.4123 32.912 33.9263 31.976C33.4583 31.022 33.2243 29.771 33.2243 28.223C33.2243 26.747 33.4583 25.505 33.9263 24.497C34.4123 23.489 35.1503 22.733 36.1403 22.229C37.1303 21.707 38.3903 21.446 39.9203 21.446H46.0223V35H30.9023ZM30.9023 35C30.6863 35 30.5423 34.856 30.4703 34.568C30.3983 34.28 30.3623 33.902 30.3623 33.434C30.3623 32.948 30.3983 32.57 30.4703 32.3C30.5423 32.012 30.6863 31.868 30.9023 31.868V35ZM37.1663 19.826V16.748H40.7843V19.826H37.1663ZM40.8653 19.826V16.748H44.4833V19.826H40.8653ZM61.7872 35V31.868H64.6222V35H61.7872ZM54.4972 41.696C53.8312 41.696 53.1292 41.642 52.3912 41.534C51.6712 41.444 50.8972 41.318 50.0692 41.156L50.6092 38.267C51.5092 38.375 52.2742 38.456 52.9042 38.51C53.5342 38.564 54.0652 38.591 54.4972 38.591C55.7932 38.591 56.7292 38.357 57.3052 37.889C57.8812 37.421 58.1692 36.719 58.1692 35.783V23.93L59.0602 24.578H55.6852C54.9472 24.578 54.3532 24.668 53.9032 24.848C53.4532 25.01 53.1202 25.361 52.9042 25.901C52.7062 26.423 52.6072 27.224 52.6072 28.304C52.6072 29.33 52.6972 30.104 52.8772 30.626C53.0752 31.13 53.3992 31.463 53.8492 31.625C54.2992 31.787 54.9112 31.868 55.6852 31.868H58.1692V35H55.6852C54.1552 35 52.8952 34.757 51.9052 34.271C50.9152 33.785 50.1772 33.047 49.6912 32.057C49.2232 31.067 48.9892 29.816 48.9892 28.304C48.9892 26.792 49.2232 25.532 49.6912 24.524C50.1772 23.498 50.9152 22.733 51.9052 22.229C52.8952 21.707 54.1552 21.446 55.6852 21.446H61.7872V35.783C61.7872 37.007 61.4812 38.06 60.8692 38.942C60.2752 39.842 59.4292 40.526 58.3312 40.994C57.2512 41.462 55.9732 41.696 54.4972 41.696ZM64.6222 35V31.868C64.8382 31.868 64.9822 32.012 65.0542 32.3C65.1262 32.57 65.1622 32.948 65.1622 33.434C65.1622 33.902 65.1262 34.28 65.0542 34.568C64.9822 34.856 64.8382 35 64.6222 35ZM80.502 35C79.764 35 79.026 34.865 78.288 34.595C77.568 34.307 76.902 33.884 76.29 33.326L78.504 31.031C78.864 31.319 79.197 31.535 79.503 31.679C79.827 31.805 80.16 31.868 80.502 31.868H85.551L83.688 33.569V27.575C83.688 27.287 83.652 26.855 83.58 26.279C83.526 25.685 83.436 25.019 83.31 24.281C83.202 23.525 83.067 22.76 82.905 21.986L86.469 21.446C86.595 22.094 86.712 22.823 86.82 23.633C86.946 24.425 87.054 25.181 87.144 25.901C87.234 26.603 87.279 27.161 87.279 27.575V35H80.502ZM64.626 35V31.868H68.568L67.758 32.705V24.2H71.376V35H64.626ZM71.376 35V31.868H73.563C74.139 31.868 74.58 31.787 74.886 31.625C75.192 31.445 75.399 31.094 75.507 30.572C75.633 30.032 75.696 29.231 75.696 28.169V22.85H79.314V28.169C79.314 29.771 79.107 31.076 78.693 32.084C78.297 33.092 77.676 33.83 76.83 34.298C75.984 34.766 74.895 35 73.563 35H71.376ZM64.626 35C64.41 35 64.266 34.856 64.194 34.568C64.122 34.28 64.086 33.902 64.086 33.434C64.086 32.948 64.122 32.57 64.194 32.3C64.266 32.012 64.41 31.868 64.626 31.868V35Z" fill="white"/>
<path d="M15.0856 21.6102L15.9884 17.7052C16.0536 17.4233 15.8356 17.1548 15.5415 17.1548H8.04043L7.86539 16.3135C7.82177 16.1038 7.63408 15.9532 7.41635 15.9532H5.45833C5.2052 15.9532 5 16.155 5 16.4038V16.7042C5 16.9531 5.2052 17.1548 5.45833 17.1548H6.7929L8.13445 23.6025C7.8135 23.7839 7.59722 24.1241 7.59722 24.5142C7.59722 25.0949 8.07603 25.5656 8.66667 25.5656C9.25731 25.5656 9.73611 25.0949 9.73611 24.5142C9.73611 24.22 9.61299 23.9541 9.41482 23.7633H13.4185C13.2203 23.9541 13.0972 24.22 13.0972 24.5142C13.0972 25.0949 13.576 25.5656 14.1667 25.5656C14.7573 25.5656 15.2361 25.0949 15.2361 24.5142C15.2361 24.098 14.99 23.7383 14.633 23.5679L14.7384 23.1122C14.8036 22.8302 14.5856 22.5617 14.2915 22.5617H9.16543L9.04044 21.961H14.6387C14.8527 21.961 15.0382 21.8154 15.0856 21.6102Z" fill="#DA0CDE"/>
</svg>
