<svg width="40" height="32" viewBox="0 0 40 32" fill="none" xmlns="http://www.w3.org/2000/svg">
<path d="M35.8884 8.51055C35.9138 8.84696 35.9138 9.18345 35.9138 9.51987C35.9138 19.781 27.6651 31.6042 12.5889 31.6042C7.94417 31.6042 3.62947 30.3306 0 28.1198C0.659924 28.1919 1.29438 28.2159 1.9797 28.2159C5.81213 28.2159 9.34011 26.9904 12.1574 24.8997C8.55331 24.8275 5.53299 22.5927 4.49236 19.5167C5.00002 19.5888 5.5076 19.6368 6.04065 19.6368C6.77667 19.6368 7.51276 19.5407 8.198 19.3725C4.44166 18.6516 1.6243 15.5276 1.6243 11.7547V11.6586C2.71564 12.2354 3.98478 12.5958 5.32986 12.6439C3.12173 11.25 1.67508 8.87101 1.67508 6.17953C1.67508 4.7377 2.0811 3.416 2.79181 2.26251C6.82737 6.97256 12.8934 10.0485 19.6954 10.385C19.5685 9.80821 19.4923 9.20749 19.4923 8.60671C19.4923 4.32916 23.1472 0.844727 27.6903 0.844727C30.0507 0.844727 32.1827 1.78193 33.6802 3.29588C35.533 2.95946 37.3096 2.31059 38.8833 1.42147C38.2741 3.22383 36.9797 4.73778 35.2792 5.69894C36.929 5.53081 38.528 5.09816 40 4.49745C38.8834 6.03536 37.4874 7.40506 35.8884 8.51055Z" fill="#D3D3D3"/>
</svg>
