<svg width="38" height="39" viewBox="0 0 38 39" fill="none" xmlns="http://www.w3.org/2000/svg">
<path d="M33.7147 3.74397C32.7208 2.86546 28.6983 0.0647462 19.7299 0.0272031C19.7299 0.0272031 9.15709 -0.580995 4.00766 3.95421C1.14339 6.70237 0.133852 10.7345 0.0242901 15.7277C-0.0852722 20.721 -0.218312 30.0767 9.18057 32.6146H9.1884L9.18057 36.4891C9.18057 36.4891 9.11796 38.0584 10.1979 38.3737C11.497 38.7642 12.264 37.5703 13.5083 36.2863C14.1891 35.5805 15.1282 34.5443 15.8404 33.7559C22.2733 34.274 27.2114 33.0877 27.7749 32.915C29.074 32.5095 36.4225 31.6085 37.612 22.2527C38.8485 12.5966 37.0172 6.49964 33.7147 3.74397ZM34.8025 21.5469C33.793 29.3559 27.8375 29.8514 26.7418 30.1893C26.2723 30.332 21.9289 31.3682 16.4743 31.0303C16.4743 31.0303 12.4048 35.7382 11.137 36.9621C10.7223 37.3601 10.2684 37.3225 10.2762 36.5341C10.2762 36.016 10.3075 30.0992 10.3075 30.0992C10.2997 30.0992 10.2997 30.0992 10.3075 30.0992C2.34075 27.9818 2.8103 20.0152 2.89639 15.8479C2.98247 11.6806 3.80419 8.26416 6.23021 5.96652C10.5892 2.17467 19.5655 2.73782 19.5655 2.73782C27.1488 2.76785 30.78 4.96037 31.6252 5.69621C34.419 7.99385 35.8433 13.4902 34.8025 21.5469ZM23.9245 15.4799C23.9558 16.1257 22.9463 16.1707 22.915 15.525C22.8289 13.8731 22.0228 13.0697 20.3638 12.9796C19.6907 12.942 19.7533 11.9734 20.4185 12.011C22.602 12.1236 23.815 13.325 23.9245 15.4799ZM25.5132 16.3284C25.5914 13.1448 23.5176 10.6519 19.5812 10.3741C18.916 10.329 18.9864 9.36042 19.6516 9.40547C24.1906 9.72083 26.6088 12.7168 26.5227 16.3509C26.5149 16.9967 25.4975 16.9667 25.5132 16.3284ZM29.1914 17.3346C29.1992 17.9803 28.1818 17.9878 28.1818 17.3421C28.1349 11.2226 23.8854 7.88873 18.7281 7.85119C18.0629 7.84368 18.0629 6.88257 18.7281 6.88257C24.4958 6.92012 29.1366 10.742 29.1914 17.3346ZM28.307 24.7005V24.7156C27.4618 26.1422 25.881 27.719 24.2532 27.2159L24.2376 27.1934C22.5863 26.7504 18.6968 24.8282 16.2395 22.951C14.9717 21.9899 13.8135 20.8561 12.9213 19.7674C12.1153 18.7988 11.3014 17.6499 10.511 16.2684C8.84406 13.3775 8.47624 12.0861 8.47624 12.0861C7.95191 10.5243 9.58752 9.00751 11.0823 8.19658H11.0979C11.8179 7.83617 12.5066 7.95631 12.9683 8.48942C12.9683 8.48942 13.9387 9.6007 14.3535 10.1488C14.7448 10.6594 15.2691 11.4779 15.543 11.9359C16.0204 12.7543 15.723 13.5878 15.2535 13.9332L14.3143 14.654C13.837 15.0219 13.8996 15.7052 13.8996 15.7052C13.8996 15.7052 15.2926 20.7585 20.4968 22.035C20.4968 22.035 21.209 22.095 21.5924 21.637L22.3437 20.736C22.7037 20.2855 23.5724 20.0001 24.4254 20.4582C25.5758 21.0814 27.0392 22.05 28.0096 22.9285C28.5575 23.3565 28.6827 24.0097 28.307 24.7005Z" fill="#D3D3D3"/>
</svg>
