<svg width="34" height="35" viewBox="0 0 34 35" fill="none" xmlns="http://www.w3.org/2000/svg">
<path d="M17 7.70213C11.4826 7.70213 6.99732 12.1404 6.98973 17.5999C6.98973 19.4699 7.52098 21.2947 8.52277 22.8643L8.75804 23.2397L7.74866 26.8895L11.5357 25.9057L11.9 26.1235C13.433 27.0246 15.1937 27.5053 16.9924 27.5053H17C22.5098 27.5053 27.1165 23.067 27.1165 17.6075C27.1165 14.964 25.9629 12.4783 24.0732 10.6084C22.1759 8.73096 19.6714 7.70213 17 7.70213ZM22.8817 21.8504C22.6313 22.5488 21.4321 23.1797 20.8554 23.2623C19.8991 23.405 19.1554 23.3299 17.2504 22.5188C14.2375 21.2271 12.2643 18.2232 12.1125 18.028C11.9607 17.8327 10.883 16.4134 10.883 14.949C10.883 13.4846 11.6571 12.7637 11.9379 12.4633C12.2112 12.1629 12.5375 12.0878 12.7424 12.0878C12.9397 12.0878 13.1446 12.0878 13.3192 12.0953C13.5013 12.1028 13.7518 12.0277 13.9946 12.606C14.2451 13.1992 14.8446 14.6636 14.9205 14.8138C14.9964 14.964 15.0496 15.1368 14.9433 15.332C14.3665 16.4735 13.7518 16.4284 14.0629 16.9541C15.2241 18.9292 16.3853 19.6125 18.1536 20.4912C18.4571 20.6414 18.6317 20.6189 18.8062 20.4161C18.9808 20.2208 19.5576 19.545 19.7549 19.2521C19.9522 18.9517 20.1571 19.0043 20.4304 19.1019C20.7036 19.1995 22.1835 19.9204 22.4871 20.0706C22.7906 20.2208 22.9879 20.2959 23.0638 20.4161C23.1321 20.5588 23.1321 21.1595 22.8817 21.8504ZM30.3571 0.883301H3.64286C1.6317 0.883301 0 2.49789 0 4.48797V30.9222C0 32.9123 1.6317 34.5269 3.64286 34.5269H30.3571C32.3683 34.5269 34 32.9123 34 30.9222V4.48797C34 2.49789 32.3683 0.883301 30.3571 0.883301ZM16.9924 29.5104C14.9737 29.5104 12.9929 29.0072 11.2397 28.061L4.85714 29.7206L6.56473 23.5476C5.50982 21.7453 4.9558 19.6952 4.9558 17.5924C4.96339 11.0289 10.3594 5.68952 16.9924 5.68952C20.2103 5.68952 23.2308 6.92863 25.5076 9.18154C27.7768 11.4345 29.1429 14.4233 29.1429 17.6075C29.1429 24.1709 23.6254 29.5104 16.9924 29.5104Z" fill="#D3D3D3"/>
</svg>
